<?xml version="1.0" encoding="UTF-8" standalone="no"?>
<svg
   xmlns:dc="http://purl.org/dc/elements/1.1/"
   xmlns:cc="http://creativecommons.org/ns#"
   xmlns:rdf="http://www.w3.org/1999/02/22-rdf-syntax-ns#"
   xmlns:svg="http://www.w3.org/2000/svg"
   xmlns="http://www.w3.org/2000/svg"
   xmlns:sodipodi="http://sodipodi.sourceforge.net/DTD/sodipodi-0.dtd"
   xmlns:inkscape="http://www.inkscape.org/namespaces/inkscape"
   aria-hidden="true"
   focusable="false"
   data-prefix="fad"
   data-icon="cogs"
   class="svg-inline--fa fa-cogs fa-w-20"
   role="img"
   viewBox="0 0 640 512"
   version="1.1"
   id="svg3763"
   sodipodi:docname="cogs-duotone.svg"
   inkscape:version="0.92.4 (5da689c313, 2019-01-14)">
  <metadata
     id="metadata3769">
    <rdf:RDF>
      <cc:Work
         rdf:about="">
        <dc:format>image/svg+xml</dc:format>
        <dc:type
           rdf:resource="http://purl.org/dc/dcmitype/StillImage" />
      </cc:Work>
    </rdf:RDF>
  </metadata>
  <defs
     id="defs3767" />
  <sodipodi:namedview
     pagecolor="#ffffff"
     bordercolor="#666666"
     borderopacity="1"
     objecttolerance="10"
     gridtolerance="10"
     guidetolerance="10"
     inkscape:pageopacity="0"
     inkscape:pageshadow="2"
     inkscape:window-width="1920"
     inkscape:window-height="1017"
     id="namedview3765"
     showgrid="false"
     inkscape:zoom="0.921875"
     inkscape:cx="156.96799"
     inkscape:cy="310.80991"
     inkscape:window-x="-8"
     inkscape:window-y="-8"
     inkscape:window-maximized="1"
     inkscape:current-layer="g3761" />
  <g
     class="fa-group"
     id="g3761">
    <path
       id="path3757"
       d="m 558.44907,-2.9745093 c -0.077,0.064407 -0.15501,0.1280112 -0.23209,0.19253 10e-4,0.043213 0.009,0.086019 0.0109,0.1292264 0.0729,-0.1080261 0.14735,-0.2147294 0.22154,-0.3217564 z M 434.35075,7.021079 c -0.008,0.010806 -0.0161,0.020933 -0.0238,0.031593 0.003,0.0095 0.005,0.019315 0.008,0.029035 0.006,-0.02134 0.009,-0.039298 0.0158,-0.060628 z m 117.40471,0.6593373 c -0.0844,0.056712 -0.16577,0.1180187 -0.25055,0.1740713 0.022,0.056984 0.0468,0.1088362 0.0686,0.1661573 0.0546,-0.1082954 0.12517,-0.2300413 0.18198,-0.3402286 z M 535.03723,225.84807 a 16.690055,16.690055 0 0 0 -13.84614,8.36307 l -11.07164,19.31075 a 119.99015,119.99015 0 0 0 -42.80697,0 l -11.07164,-19.31075 a 16.690055,16.690055 0 0 0 -20.38943,-7.2923 151.00718,151.00718 0 0 0 -43.34763,25.11821 16.609035,16.609035 0 0 0 -3.77935,21.1991 l 11.07164,19.31075 a 116.57382,116.57382 0 0 0 -21.47074,36.99688 h -22.28041 a 16.784577,16.784577 0 0 0 -16.47295,14.04393 152.12795,152.12795 0 0 0 0,50.09664 16.663049,16.663049 0 0 0 16.47295,13.90944 h 22.28041 a 116.57382,116.57382 0 0 0 21.47074,36.99952 l -11.07164,19.30811 a 16.771075,16.771075 0 0 0 3.77935,21.20173 149.21125,149.21125 0 0 0 43.34763,25.11557 16.690055,16.690055 0 0 0 20.38943,-7.29229 l 11.07164,-19.30812 a 119.99015,119.99015 0 0 0 42.80697,0 l 11.07164,19.30812 a 16.690055,16.690055 0 0 0 20.38942,7.29229 151.00718,151.00718 0 0 0 43.34501,-25.11557 16.609035,16.609035 0 0 0 3.78198,-21.20173 l -11.07164,-19.30811 a 116.57382,116.57382 0 0 0 21.4681,-36.99952 h 22.28042 a 16.784577,16.784577 0 0 0 16.47559,-14.04394 152.12795,152.12795 0 0 0 0.0135,-50.09664 16.663049,16.663049 0 0 0 -16.47294,-13.90943 H 599.12007 A 116.57382,116.57382 0 0 0 577.64902,292.5469 l 11.05845,-19.31075 a 16.771075,16.771075 0 0 0 -3.78198,-21.1991 149.21125,149.21125 0 0 0 -43.34501,-25.11821 16.690055,16.690055 0 0 0 -6.54328,-1.07077 z m -46.97666,93.8188 c 11.61404,-0.16427 24.20042,3.75032 36.38502,13.11822 39.95622,51.97412 -19.31073,111.25504 -71.29836,71.28518 v 0.0135 c -30.60183,-39.80303 -3.02581,-83.88001 34.91334,-84.41659 z"
       inkscape:connector-curvature="0"
       style="stroke-width:1.35032809" />
    <path
       class="fa-primary"
       d="m 376.7662,278.71066 v 0 c 3.69416,-19.87922 3.69416,-40.26893 0,-60.14816 l 31.92115,-15.91321 c 9.56687,-5.58857 13.26101,-17.23931 9.47215,-27.56396 -8.43022,-22.9226 -24.53287,-43.95078 -39.87776,-62.32675 -7.08196,-8.4148 -19.18275,-10.53144 -28.70061,-5.02024 l -27.56396,15.91321 C 306.67232,110.53672 289.04462,100.35825 270.01506,93.624832 V 61.798408 c -0.0297,-11.070061 -8.02903,-20.5093 -18.9443,-22.354277 -23.83251,-3.995095 -48.16644,-3.963077 -71.98835,0.09472 -10.77018,1.933961 -18.60015,11.31715 -18.57489,22.259555 v 31.921146 c -19.04679,6.695998 -36.68106,16.878268 -52.00211,30.026718 L 80.941448,107.82359 c -9.516424,-5.51929 -21.622753,-3.40168 -28.700617,5.02024 -15.344885,18.37597 -31.542263,39.40415 -39.972477,62.32675 -3.8518964,10.35654 0.35637,21.97937 9.945758,27.46924 l 31.542263,16.00793 c -3.694108,19.84739 -3.694108,40.20605 0,60.05344 L 22.214112,294.6144 c -9.543727,5.57472 -13.7311214,17.17979 -9.945758,27.56396 8.430214,22.82789 24.627592,43.85606 39.972477,62.23204 7.081963,8.41479 19.182754,10.53144 28.700617,5.02024 l 27.563962,-15.8185 c 15.34485,13.11483 32.97255,23.2933 52.00211,30.02672 v 31.82643 c 0.0297,11.07006 8.02903,20.5093 18.9443,22.35428 23.79145,4.07338 48.10218,4.07338 71.89363,0 10.81669,-1.94259 18.68164,-11.36456 18.66013,-22.35428 v -31.82643 c 19.0468,-6.69599 36.68106,-16.87826 52.00211,-30.02672 v 0 l 4.8902,-19.93165 c 14.3174,-33.78829 49.86831,-74.96983 49.86831,-74.96983 3.83872,-10.38403 0,0 0,0 z M 265.36423,298.68743 C 192.42867,354.76256 109.16846,271.50236 165.2436,198.56679 c 72.93556,-56.07513 156.20524,27.18508 100.1301,100.12064 z"
       id="path3759"
       inkscape:connector-curvature="0"
       style="fill:currentColor;stroke-width:0.94721508"
       sodipodi:nodetypes="ccccccccccccccccccccccccccccccccccccccccc" />
  </g>
</svg>
